<svg id="Layer_1" data-name="Layer 1" xmlns="http://www.w3.org/2000/svg" viewBox="0 0 64 16"><path d="M8,0a8,8,0,1,0,8,8A8,8,0,0,0,8,0Zm3.15,10.1a.73.73,0,0,1,.22.53.76.76,0,0,1-.21.53.75.75,0,0,1-.53.22.78.78,0,0,1-.54-.23L8,9.06,5.92,11.15a.76.76,0,0,1-.55.23.75.75,0,0,1-.53-.22.76.76,0,0,1-.21-.53.67.67,0,0,1,.22-.52L7,8,4.85,5.9a.67.67,0,0,1-.22-.51.72.72,0,0,1,.21-.53.73.73,0,0,1,.53-.2.68.68,0,0,1,.52.2L8,7l2.12-2.11a.74.74,0,0,1,1,0,.73.73,0,0,1,.22.52.74.74,0,0,1-.22.52L9.06,8Z" style="fill:gray"/><path d="M32,0a8,8,0,1,0,8,8A8,8,0,0,0,32,0Zm3.15,10.1a.73.73,0,0,1,.22.53.76.76,0,0,1-.21.53.75.75,0,0,1-.53.22.78.78,0,0,1-.54-.23L32,9.06l-2.08,2.09a.76.76,0,0,1-.55.23.75.75,0,0,1-.53-.22.76.76,0,0,1-.21-.53.67.67,0,0,1,.22-.52L31,8l-2.1-2.1a.67.67,0,0,1-.22-.51.72.72,0,0,1,.21-.53.73.73,0,0,1,.53-.2.68.68,0,0,1,.52.2L32,7l2.12-2.11a.74.74,0,0,1,1,0,.73.73,0,0,1,.22.52.74.74,0,0,1-.22.52L33.06,8Z" style="fill:gray"/><path d="M56,0a8,8,0,1,0,8,8A8,8,0,0,0,56,0Zm3.15,10.1a.73.73,0,0,1,.22.53.76.76,0,0,1-.21.53.75.75,0,0,1-.53.22.78.78,0,0,1-.54-.23L56,9.06l-2.08,2.09a.76.76,0,0,1-.55.23.75.75,0,0,1-.53-.22.76.76,0,0,1-.21-.53.67.67,0,0,1,.22-.52L55,8l-2.1-2.1a.67.67,0,0,1-.22-.51.72.72,0,0,1,.21-.53.73.73,0,0,1,.53-.2.68.68,0,0,1,.52.2L56,7l2.12-2.11a.74.74,0,0,1,1,0,.73.73,0,0,1,.22.52.74.74,0,0,1-.22.52L57.06,8Z" style="fill:gray"/></svg>