<svg id="Layer_1" data-name="Layer 1" xmlns="http://www.w3.org/2000/svg" viewBox="0 0 16 16"><path d="M13.47,12a3.7,3.7,0,0,1-1.54,1.47A5.05,5.05,0,0,1,9.54,14H8a.74.74,0,0,1-.55-.21.77.77,0,0,1-.22-.54.73.73,0,0,1,.22-.53A.71.71,0,0,1,8,12.5H9.48a3.45,3.45,0,0,0,1.64-.36,2.42,2.42,0,0,0,1-1,2.81,2.81,0,0,0,.36-1.43,2.68,2.68,0,0,0-.36-1.4,2.4,2.4,0,0,0-1-1A3.58,3.58,0,0,0,9.48,7H5.68l-2.19-.1.24-.41L5.3,7.85,6.78,9.3A.55.55,0,0,1,7,9.53.68.68,0,0,1,7,9.82a.72.72,0,0,1-.2.53.69.69,0,0,1-.53.21.77.77,0,0,1-.55-.24L2.2,6.84A.76.76,0,0,1,2,6.58.78.78,0,0,1,2,6a.68.68,0,0,1,.18-.26L5.73,2.23A.8.8,0,0,1,6.28,2,.7.7,0,0,1,7,2.73.73.73,0,0,1,7,3a.72.72,0,0,1-.17.23L5.3,4.71,3.73,6l-.24-.4,2.19-.1H9.47a5.13,5.13,0,0,1,2.43.54,3.89,3.89,0,0,1,1.56,1.5A4.45,4.45,0,0,1,14,9.79,4.5,4.5,0,0,1,13.47,12Z" style="fill:#fff"/></svg>