<svg id="Layer_1" data-name="Layer 1" xmlns="http://www.w3.org/2000/svg" viewBox="0 0 16 16"><path d="M1,8.7A.41.41,0,0,0,1.49,9h1a6,6,0,0,0,1,2.51,5.55,5.55,0,0,0,1.94,1.7A5.46,5.46,0,0,0,8,13.83a5.32,5.32,0,0,0,1.78-.3,4.38,4.38,0,0,0,1.47-.82,1.24,1.24,0,0,0,.47-.71A.89.89,0,0,0,11,11a1,1,0,0,0-.69.24,4.34,4.34,0,0,1-1,.61A3.29,3.29,0,0,1,8,12a3.84,3.84,0,0,1-1.72-.39A3.94,3.94,0,0,1,5,10.56,3.79,3.79,0,0,1,4.18,9h1A.43.43,0,0,0,5.6,8.7a.71.71,0,0,0-.12-.62L3.84,5.75a.68.68,0,0,0-.53-.32.64.64,0,0,0-.55.32L1.15,8.08A.71.71,0,0,0,1,8.7ZM5.07,5a1,1,0,0,0,.69-.24,4.08,4.08,0,0,1,1-.61A3.29,3.29,0,0,1,8,4a3.76,3.76,0,0,1,1.73.4A4,4,0,0,1,11.87,7h-1a.43.43,0,0,0-.48.31.69.69,0,0,0,.12.61l1.65,2.34a.67.67,0,0,0,.53.31.65.65,0,0,0,.55-.31l1.61-2.34A.71.71,0,0,0,15,7.29c-.05-.2-.21-.3-.47-.3h-.93a6,6,0,0,0-1-2.51,5.67,5.67,0,0,0-1.95-1.7A5.46,5.46,0,0,0,8,2.17a5.31,5.31,0,0,0-1.77.3,4.52,4.52,0,0,0-1.48.82A1.19,1.19,0,0,0,4.3,4a.83.83,0,0,0,.17.7A.82.82,0,0,0,5.07,5Z" style="fill:#fff"/></svg>