<svg id="Layer_1" data-name="Layer 1" xmlns="http://www.w3.org/2000/svg" viewBox="0 0 16 16"><path d="M4.91,15.37A8.19,8.19,0,0,1,.63,11.09,7.69,7.69,0,0,1,0,8,7.62,7.62,0,0,1,.63,4.91,8.19,8.19,0,0,1,2.35,2.36,8.06,8.06,0,0,1,4.9.63,7.71,7.71,0,0,1,8,0a7.69,7.69,0,0,1,3.09.63,8.19,8.19,0,0,1,4.28,4.28A7.62,7.62,0,0,1,16,8a7.69,7.69,0,0,1-.63,3.09,8.19,8.19,0,0,1-4.28,4.28A7.66,7.66,0,0,1,8,16,7.62,7.62,0,0,1,4.91,15.37Zm3.62-3.51a.67.67,0,0,0,.21-.52V7.59L8.66,5.93l.72.91.89.93a.62.62,0,0,0,.49.21.64.64,0,0,0,.68-.66.7.7,0,0,0-.2-.49L8.59,4.14a.74.74,0,0,0-1.16,0L4.77,6.83a.67.67,0,0,0-.19.49A.63.63,0,0,0,5.25,8a.86.86,0,0,0,.27-.05.6.6,0,0,0,.22-.16l.9-.93.71-.9L7.28,7.59v3.75a.67.67,0,0,0,.21.52.72.72,0,0,0,.52.2A.73.73,0,0,0,8.53,11.86Z" style="fill:#1fa3ec"/></svg>