<svg id="Layer_1" data-name="Layer 1" xmlns="http://www.w3.org/2000/svg" viewBox="0 0 24 24"><rect width="24" height="24" rx="5" style="fill:#027afe"/><path d="M8.05,17.84a1.18,1.18,0,0,1,.86-.3h2.16v-6H9.17a1.17,1.17,0,0,1-.84-.3A1,1,0,0,1,8,10.47a1,1,0,0,1,.31-.79,1.21,1.21,0,0,1,.84-.29h3.11a1.09,1.09,0,0,1,.81.3,1.13,1.13,0,0,1,.31.83v7h1.7a1.19,1.19,0,0,1,.85.3,1.12,1.12,0,0,1,0,1.56,1.16,1.16,0,0,1-.84.29H8.91a1.21,1.21,0,0,1-.86-.29,1.14,1.14,0,0,1,0-1.56Zm2.7-13.37a1.59,1.59,0,0,1,2.26,0,1.62,1.62,0,0,1,0,2.28,1.53,1.53,0,0,1-1.13.47A1.65,1.65,0,0,1,11.06,7a1.51,1.51,0,0,1-.57-.58,1.58,1.58,0,0,1-.21-.81A1.55,1.55,0,0,1,10.75,4.47Z" style="fill:#fff"/></svg>