<svg id="Layer_1" data-name="Layer 1" xmlns="http://www.w3.org/2000/svg" viewBox="0 0 24 24"><rect width="24" height="24" rx="5" style="fill:#8c8b90"/><path d="M9.32,16.68a.49.49,0,0,1-.12-.34V15.28a2.12,2.12,0,0,0-.23-1,7.37,7.37,0,0,0-.57-.94c-.22-.31-.45-.66-.68-1a7.06,7.06,0,0,1-.57-1.27,5.39,5.39,0,0,1-.23-1.63,6.32,6.32,0,0,1,.37-2.23,5.12,5.12,0,0,1,1-1.72A4.93,4.93,0,0,1,9.93,4.39,5.3,5.3,0,0,1,12,4a5.3,5.3,0,0,1,2.07.39A4.83,4.83,0,0,1,15.68,5.5a5,5,0,0,1,1,1.72,6.32,6.32,0,0,1,.37,2.23,5.39,5.39,0,0,1-.23,1.63,5.9,5.9,0,0,1-.57,1.27c-.22.37-.45.72-.67,1a6.38,6.38,0,0,0-.57.94,2,2,0,0,0-.23,1v1.06a.49.49,0,0,1-.12.34.41.41,0,0,1-.32.13H9.63A.39.39,0,0,1,9.32,16.68Zm0,1.87a.71.71,0,0,1-.18-.49.72.72,0,0,1,.18-.49.59.59,0,0,1,.44-.2h4.38a.59.59,0,0,1,.44.2.69.69,0,0,1,.19.49.67.67,0,0,1-.19.49.59.59,0,0,1-.44.2H9.81A.59.59,0,0,1,9.37,18.55Zm1.46,1.62a1.13,1.13,0,0,1-.51-.86h3.36a1.13,1.13,0,0,1-.51.86A2,2,0,0,1,12,20.5,2,2,0,0,1,10.83,20.17Z" style="fill:#fff"/></svg>