<svg id="Layer_1" data-name="Layer 1" xmlns="http://www.w3.org/2000/svg" viewBox="0 0 24 24"><rect width="24" height="24" rx="5" style="fill:#027afd"/><path d="M9.3,18.45A7.07,7.07,0,0,1,5.55,14.7,6.69,6.69,0,0,1,5,12a6.62,6.62,0,0,1,.55-2.7A7.1,7.1,0,0,1,9.29,5.55a6.93,6.93,0,0,1,5.41,0A7.07,7.07,0,0,1,18.45,9.3,6.62,6.62,0,0,1,19,12a6.69,6.69,0,0,1-.55,2.7,7.07,7.07,0,0,1-3.75,3.75,6.9,6.9,0,0,1-5.4,0Zm4.88-1.29a5.59,5.59,0,0,0,3-3A5.69,5.69,0,0,0,17.6,12a5.44,5.44,0,0,0-.44-2.18,5.57,5.57,0,0,0-3-3A5.59,5.59,0,0,0,8,8a5.75,5.75,0,0,0-1.2,1.79A5.44,5.44,0,0,0,6.41,12a5.51,5.51,0,0,0,.43,2.18,5.62,5.62,0,0,0,3,3,5.74,5.74,0,0,0,4.36,0ZM10.37,15.9a4.32,4.32,0,0,1-2.26-2.27A3.9,3.9,0,0,1,7.77,12a4.09,4.09,0,0,1,.33-1.63A4.31,4.31,0,0,1,9,9a4.49,4.49,0,0,1,1.35-.92,4.19,4.19,0,0,1,3.26,0A4.49,4.49,0,0,1,15,9a4.29,4.29,0,0,1,.91,1.35A3.94,3.94,0,0,1,16.23,12a4.06,4.06,0,0,1-.33,1.63,4.39,4.39,0,0,1-2.27,2.27,4.19,4.19,0,0,1-3.26,0Z" style="fill:#fff"/></svg>