<svg id="Layer_1" data-name="Layer 1" xmlns="http://www.w3.org/2000/svg" viewBox="0 0 24 24"><rect width="24" height="24" rx="5" style="fill:#027afd"/><path d="M9.3,18.45A7.09,7.09,0,0,1,5.55,14.7,6.59,6.59,0,0,1,5,12a6.59,6.59,0,0,1,.55-2.7A7.11,7.11,0,0,1,9.29,5.55a7,7,0,0,1,5.41,0A7.09,7.09,0,0,1,18.45,9.3,6.59,6.59,0,0,1,19,12a6.59,6.59,0,0,1-.55,2.7,7.09,7.09,0,0,1-3.75,3.75A6.93,6.93,0,0,1,9.3,18.45Zm4.88-1.29a5.58,5.58,0,0,0,3-3A5.73,5.73,0,0,0,17.6,12a5.28,5.28,0,0,0-.44-2.18A5.64,5.64,0,0,0,8,8,5.69,5.69,0,0,0,6.8,9.79,5.38,5.38,0,0,0,6.41,12a5.44,5.44,0,0,0,.43,2.18,5.65,5.65,0,0,0,3,3,5.77,5.77,0,0,0,4.36,0ZM10.37,15.9a4.29,4.29,0,0,1-2.26-2.27A3.82,3.82,0,0,1,7.77,12a4.13,4.13,0,0,1,.33-1.63A4.35,4.35,0,0,1,9,9a4.43,4.43,0,0,1,1.35-.92,4.19,4.19,0,0,1,3.26,0A4.49,4.49,0,0,1,15,9a4.23,4.23,0,0,1,.91,1.35A4,4,0,0,1,16.23,12a4.13,4.13,0,0,1-.33,1.63,4.34,4.34,0,0,1-2.27,2.27A4.19,4.19,0,0,1,10.37,15.9Z" style="fill:#fff"/></svg>