<svg id="Layer_1" data-name="Layer 1" xmlns="http://www.w3.org/2000/svg" viewBox="0 0 24 24"><rect width="24" height="24" rx="5" style="fill:#fe2c55"/><path d="M10.82,15a1.13,1.13,0,0,1-.27-.79v-.43a3.07,3.07,0,0,1,.26-1.27,3.84,3.84,0,0,1,.74-1,9.16,9.16,0,0,1,1.09-.9,9.28,9.28,0,0,0,.95-.75,2.71,2.71,0,0,0,.6-.79,2.2,2.2,0,0,0,.21-1,1.94,1.94,0,0,0-.34-1.14,2.13,2.13,0,0,0-.91-.76,3.11,3.11,0,0,0-1.28-.26,2.73,2.73,0,0,0-1.08.2,2.15,2.15,0,0,0-.85.63,2.91,2.91,0,0,0-.55,1.13A1.11,1.11,0,0,1,9,8.4a1,1,0,0,1-.62.2.89.89,0,0,1-.71-.28,1,1,0,0,1-.25-.72,2.7,2.7,0,0,1,.26-1.14,3.81,3.81,0,0,1,1-1.33,4.27,4.27,0,0,1,1.47-.84A5.65,5.65,0,0,1,12,4a5.54,5.54,0,0,1,2.35.48A3.92,3.92,0,0,1,16,5.86a3.83,3.83,0,0,1,.61,2.19,3.61,3.61,0,0,1-.6,2.08,5.84,5.84,0,0,1-1.67,1.6,11.68,11.68,0,0,0-1,.79,2.06,2.06,0,0,0-.52.7,2.42,2.42,0,0,0-.19.86v.26a1.23,1.23,0,0,1-.28.71.92.92,0,0,1-.71.27A.94.94,0,0,1,10.82,15Zm.1,4.81a1.56,1.56,0,0,1-.49-.5,1.38,1.38,0,0,1-.18-.7,1.36,1.36,0,0,1,.18-.68,1.47,1.47,0,0,1,.49-.5,1.36,1.36,0,0,1,1.35,0,1.31,1.31,0,0,1,.49.5,1.36,1.36,0,0,1,.18.68,1.37,1.37,0,0,1-.67,1.2,1.36,1.36,0,0,1-1.35,0Z" style="fill:#fff"/></svg>