<svg id="Layer_1" data-name="Layer 1" xmlns="http://www.w3.org/2000/svg" viewBox="0 0 24 24"><rect width="24" height="24" rx="5" style="fill:#fe3d2e"/><path d="M5.91,12.82A1.15,1.15,0,0,1,5.55,12a1.2,1.2,0,0,1,.36-.86,1.17,1.17,0,0,1,.85-.37A1.21,1.21,0,0,1,8,12a1.23,1.23,0,0,1-1.22,1.21A1.19,1.19,0,0,1,5.91,12.82Zm3.43,1.86a1.43,1.43,0,0,1,.25-.55,2.69,2.69,0,0,0,.51-1A3.69,3.69,0,0,0,10.28,12a3.75,3.75,0,0,0-.18-1.16,3.09,3.09,0,0,0-.51-1,1.51,1.51,0,0,1-.24-.56.58.58,0,0,1,.15-.52.7.7,0,0,1,.56-.26.72.72,0,0,1,.59.31,4.41,4.41,0,0,1,.81,1.44,5.25,5.25,0,0,1,0,3.44,4.47,4.47,0,0,1-.81,1.43.72.72,0,0,1-.59.31.7.7,0,0,1-.56-.26A.61.61,0,0,1,9.34,14.68ZM11.65,17a1,1,0,0,1,.29-.54,6.27,6.27,0,0,0,1.2-2A7,7,0,0,0,13.56,12a7.07,7.07,0,0,0-.42-2.44,5.87,5.87,0,0,0-1.2-2A1.12,1.12,0,0,1,11.65,7a.6.6,0,0,1,.16-.52.69.69,0,0,1,.55-.26.77.77,0,0,1,.61.29,6.84,6.84,0,0,1,1.12,1.58,7.84,7.84,0,0,1,.7,1.86A8.77,8.77,0,0,1,15,12a8.52,8.52,0,0,1-.53,3A7.36,7.36,0,0,1,13,17.49a.8.8,0,0,1-.61.29.68.68,0,0,1-.55-.25A.66.66,0,0,1,11.65,17ZM14,19.23a1,1,0,0,1,.26-.55,9.55,9.55,0,0,0,1.91-3A9.86,9.86,0,0,0,16.86,12a10.08,10.08,0,0,0-.66-3.66,8.88,8.88,0,0,0-1.92-3A.87.87,0,0,1,14,4.77a.67.67,0,0,1,.18-.53A.76.76,0,0,1,14.73,4a.77.77,0,0,1,.58.25,10.87,10.87,0,0,1,2.23,3.52A11.32,11.32,0,0,1,18.33,12a11.27,11.27,0,0,1-.79,4.22,11,11,0,0,1-2.23,3.52.74.74,0,0,1-.58.26.73.73,0,0,1-.54-.25A.64.64,0,0,1,14,19.23Z" style="fill:#fff"/></svg>