<svg id="Layer_1" data-name="Layer 1" xmlns="http://www.w3.org/2000/svg" viewBox="0 0 24 24"><rect width="24" height="24" rx="5" style="fill:#fe3d2e"/><path d="M5.91,12.82A1.11,1.11,0,0,1,5.55,12a1.22,1.22,0,0,1,.36-.86,1.15,1.15,0,0,1,.85-.37A1.21,1.21,0,0,1,8,12V12a1.23,1.23,0,0,1-1.22,1.21A1.16,1.16,0,0,1,5.91,12.82Zm3.43,1.86a1.38,1.38,0,0,1,.25-.55,2.64,2.64,0,0,0,.51-1A3.66,3.66,0,0,0,10.28,12a3.8,3.8,0,0,0-.18-1.16,3.16,3.16,0,0,0-.51-1,1.47,1.47,0,0,1-.24-.56.58.58,0,0,1,.15-.52.72.72,0,0,1,1.15.05,4.36,4.36,0,0,1,.81,1.44,5.2,5.2,0,0,1,0,3.44,4.41,4.41,0,0,1-.81,1.43.72.72,0,0,1-1.15.05A.62.62,0,0,1,9.34,14.68ZM11.65,17a1,1,0,0,1,.29-.54,6.27,6.27,0,0,0,1.2-2A6.88,6.88,0,0,0,13.56,12a7.24,7.24,0,0,0-.42-2.44,5.84,5.84,0,0,0-1.2-2A1.12,1.12,0,0,1,11.65,7a.62.62,0,0,1,.16-.52.69.69,0,0,1,.55-.26.76.76,0,0,1,.61.29,6.76,6.76,0,0,1,1.12,1.58,7.74,7.74,0,0,1,.7,1.86A8.81,8.81,0,0,1,15,12a8.32,8.32,0,0,1-.53,3A7.3,7.3,0,0,1,13,17.49a.79.79,0,0,1-.61.29.68.68,0,0,1-.55-.25A.65.65,0,0,1,11.65,17ZM14,19.23a1,1,0,0,1,.26-.55,9.46,9.46,0,0,0,1.91-3A9.85,9.85,0,0,0,16.86,12a10,10,0,0,0-.66-3.66,8.8,8.8,0,0,0-1.92-3A.89.89,0,0,1,14,4.77a.69.69,0,0,1,.18-.53A.76.76,0,0,1,14.73,4a.79.79,0,0,1,.58.25,10.91,10.91,0,0,1,2.23,3.52A11.34,11.34,0,0,1,18.33,12a11.29,11.29,0,0,1-.79,4.22,11,11,0,0,1-2.23,3.52.72.72,0,0,1-.58.26.71.71,0,0,1-.54-.25A.64.64,0,0,1,14,19.23Z" style="fill:#fff"/></svg>