<svg id="Layer_1" data-name="Layer 1" xmlns="http://www.w3.org/2000/svg" viewBox="0 0 24 24"><rect width="24" height="24" rx="5" style="fill:#fd2c55"/><path d="M11.38,19.74a1,1,0,0,1-.25-.69V8.66l.1-2.78.51.29L9.2,9.27l-1.76,1.9a.9.9,0,0,1-.27.21,1,1,0,0,1-.34.07.76.76,0,0,1-.59-.26A.92.92,0,0,1,6,10.54a1,1,0,0,1,.27-.68l5.09-5.57a1,1,0,0,1,.3-.21A.81.81,0,0,1,12,4a.89.89,0,0,1,.35.08.86.86,0,0,1,.29.21l5.1,5.57a1,1,0,0,1,.26.68.92.92,0,0,1-.24.65.76.76,0,0,1-.59.26.88.88,0,0,1-.33-.07.83.83,0,0,1-.28-.21L14.8,9.27l-2.55-3.1.52-.29.1,2.78V19.05a1,1,0,0,1-.25.69.87.87,0,0,1-1.24,0Z" style="fill:#fff"/></svg>