<svg id="Layer_1" data-name="Layer 1" xmlns="http://www.w3.org/2000/svg" viewBox="0 0 24 24"><rect width="24" height="24" rx="5" style="fill:#00acff"/><path d="M20,12a.86.86,0,0,0-.65-.27H16.81L16,7.81a.84.84,0,0,0-.34-.52,1,1,0,0,0-.54-.17,1,1,0,0,0-.53.18.81.81,0,0,0-.34.54l-1.59,7.35L10.85,4a.8.8,0,0,0-.3-.55A.84.84,0,0,0,10,3.28.85.85,0,0,0,9.16,4l-1.61,7.7H4.66A.86.86,0,0,0,4,12a.94.94,0,0,0,0,1.3.86.86,0,0,0,.65.27h3.5a.93.93,0,0,0,1-.76L10,9l1.77,11a.78.78,0,0,0,.32.56,1,1,0,0,0,.55.17h0a.87.87,0,0,0,.54-.17.81.81,0,0,0,.34-.54l1.65-8,.14.74a.93.93,0,0,0,1,.83h3.08a.85.85,0,0,0,.64-.27A.93.93,0,0,0,20,12Z" style="fill:#fff"/></svg>