<svg id="Layer_1" data-name="Layer 1" xmlns="http://www.w3.org/2000/svg" viewBox="0 0 24 24"><rect width="24" height="24" rx="5" style="fill:#fd2c55"/><path d="M9.44,20.66a4,4,0,0,1-1.31-.94,4.4,4.4,0,0,1-.88-1.38,4.58,4.58,0,0,1-.31-1.7,4.44,4.44,0,0,1,.34-1.75,4.58,4.58,0,0,1,1-1.45.71.71,0,0,0,.16-.22.88.88,0,0,0,0-.26V6a3.62,3.62,0,0,1,.31-1.56,2.58,2.58,0,0,1,.9-1A2.38,2.38,0,0,1,11,3a2.35,2.35,0,0,1,1.33.37,2.49,2.49,0,0,1,.89,1A3.48,3.48,0,0,1,13.56,6v7a.62.62,0,0,0,0,.26.54.54,0,0,0,.15.22,4.46,4.46,0,0,1,1,1.46,4.39,4.39,0,0,1,.34,1.74,4.58,4.58,0,0,1-.31,1.7,4.23,4.23,0,0,1-.88,1.38,4,4,0,0,1-1.29.94,3.86,3.86,0,0,1-3.17,0Zm3-1.45a3.18,3.18,0,0,0,1-1.09,3,3,0,0,0,.37-1.5,3,3,0,0,0-.32-1.39,2.79,2.79,0,0,0-.9-1.06,1,1,0,0,1-.25-.26.81.81,0,0,1-.07-.38V6a1.93,1.93,0,0,0-.34-1.19,1.11,1.11,0,0,0-1.78,0A1.87,1.87,0,0,0,9.78,6v7.49a.81.81,0,0,1-.07.38,1.11,1.11,0,0,1-.24.26,2.91,2.91,0,0,0-.91,1.06,3.09,3.09,0,0,0-.32,1.39,3,3,0,0,0,.38,1.5,3,3,0,0,0,1,1.09,2.65,2.65,0,0,0,2.8,0Zm-2.3-.93a2,2,0,0,1-.62-2.66,2,2,0,0,1,.7-.69.63.63,0,0,0,.24-.21.79.79,0,0,0,.07-.4V10.25a.69.69,0,0,1,.15-.48.47.47,0,0,1,.72,0,.69.69,0,0,1,.15.48v4.07a.79.79,0,0,0,.07.4.51.51,0,0,0,.24.21,2,2,0,0,1,1,1.68,2,2,0,0,1-.24,1,2,2,0,0,1-.65.7,1.6,1.6,0,0,1-.89.26A1.66,1.66,0,0,1,10.12,18.28ZM14.63,6a.52.52,0,0,1-.12-.34.5.5,0,0,1,.12-.34A.43.43,0,0,1,15,5.15H16.6a.43.43,0,0,1,.34.15.5.5,0,0,1,.12.34.52.52,0,0,1-.12.34.43.43,0,0,1-.34.15H15A.43.43,0,0,1,14.63,6Zm0,2.21a.54.54,0,0,1,0-.68A.43.43,0,0,1,15,7.36H16.6a.43.43,0,0,1,.34.15.54.54,0,0,1,0,.68.43.43,0,0,1-.34.15H15A.43.43,0,0,1,14.63,8.19Zm0,2.22a.52.52,0,0,1-.12-.34.55.55,0,0,1,.12-.35A.46.46,0,0,1,15,9.58H16.6a.46.46,0,0,1,.34.14.55.55,0,0,1,.12.35.52.52,0,0,1-.12.34.43.43,0,0,1-.34.15H15A.43.43,0,0,1,14.63,10.41Zm0,2.22a.51.51,0,0,1-.12-.35.5.5,0,0,1,.12-.33A.43.43,0,0,1,15,11.8H16.6a.43.43,0,0,1,.34.15.5.5,0,0,1,.12.33.51.51,0,0,1-.12.35.43.43,0,0,1-.34.15H15A.43.43,0,0,1,14.63,12.63Z" style="fill:#fff"/></svg>