<svg id="Layer_1" data-name="Layer 1" xmlns="http://www.w3.org/2000/svg" viewBox="0 0 24 24"><rect width="24" height="24" rx="5" style="fill:#fd2c55"/><path d="M9.44,20.66a3.94,3.94,0,0,1-1.31-.94,4.27,4.27,0,0,1-.88-1.38,4.49,4.49,0,0,1-.31-1.7,4.37,4.37,0,0,1,.34-1.75,4.7,4.7,0,0,1,1-1.45.69.69,0,0,0,.16-.22,1.13,1.13,0,0,0,0-.26V6a3.63,3.63,0,0,1,.31-1.56,2.63,2.63,0,0,1,.9-1,2.42,2.42,0,0,1,2.68-.07,2.53,2.53,0,0,1,.89,1A3.54,3.54,0,0,1,13.56,6v7a.57.57,0,0,0,0,.26.54.54,0,0,0,.15.22,4.38,4.38,0,0,1,1.34,3.2,4.49,4.49,0,0,1-.31,1.7,4.27,4.27,0,0,1-.88,1.38,3.87,3.87,0,0,1-4.46.94Zm3-1.45a3.17,3.17,0,0,0,1-1.09,3,3,0,0,0,.37-1.5,2.93,2.93,0,0,0-.32-1.39,2.89,2.89,0,0,0-.9-1.06,1,1,0,0,1-.25-.26.83.83,0,0,1-.07-.38V6a2,2,0,0,0-.34-1.19,1.11,1.11,0,0,0-1.55-.23,1,1,0,0,0-.23.23A1.82,1.82,0,0,0,9.78,6v7.49a.83.83,0,0,1-.07.38,1.2,1.2,0,0,1-.24.26,2.91,2.91,0,0,0-.91,1.06,3.18,3.18,0,0,0-.32,1.39,2.94,2.94,0,0,0,.38,1.5,3,3,0,0,0,1,1.09,2.66,2.66,0,0,0,2.8,0Zm-2.3-.93a2,2,0,0,1,.08-3.35.61.61,0,0,0,.24-.21.77.77,0,0,0,.07-.4V10.25a.71.71,0,0,1,.15-.48.47.47,0,0,1,.66-.06l.06.06a.71.71,0,0,1,.15.48v4.07a.77.77,0,0,0,.07.4.54.54,0,0,0,.24.21,2,2,0,0,1,1,1.68,2,2,0,0,1-.24,1,2.07,2.07,0,0,1-.65.7,1.63,1.63,0,0,1-.89.26,1.72,1.72,0,0,1-1-.29ZM14.63,6a.54.54,0,0,1-.12-.34.52.52,0,0,1,.12-.34A.42.42,0,0,1,15,5.15h1.6a.43.43,0,0,1,.34.15.52.52,0,0,1,.12.34.54.54,0,0,1-.12.34.43.43,0,0,1-.34.15H15A.43.43,0,0,1,14.63,6Zm0,2.21a.54.54,0,0,1,0-.68A.42.42,0,0,1,15,7.36h1.6a.43.43,0,0,1,.34.15.54.54,0,0,1,0,.68.43.43,0,0,1-.34.15H15a.43.43,0,0,1-.37-.15Zm0,2.22a.54.54,0,0,1-.12-.34.55.55,0,0,1,.12-.35A.44.44,0,0,1,15,9.58h1.6a.48.48,0,0,1,.34.14.55.55,0,0,1,.12.35.54.54,0,0,1-.12.34.43.43,0,0,1-.34.15H15a.43.43,0,0,1-.37-.15Zm0,2.22a.54.54,0,0,1,0-.68A.42.42,0,0,1,15,11.8h1.6a.43.43,0,0,1,.34.15.54.54,0,0,1,0,.68.43.43,0,0,1-.34.15H15a.43.43,0,0,1-.37-.15Z" style="fill:#fff"/></svg>