<svg id="Layer_1" data-name="Layer 1" xmlns="http://www.w3.org/2000/svg" viewBox="0 0 24 24"><rect width="24" height="24" rx="5" style="fill:#027afd"/><path d="M3.84,10.12a.42.42,0,0,1-.1-.24.32.32,0,0,1,.08-.23A8.7,8.7,0,0,1,6,7.78,11.17,11.17,0,0,1,8.81,6.5a11.36,11.36,0,0,1,6.4,0,11.52,11.52,0,0,1,2.85,1.28A8.91,8.91,0,0,1,20.2,9.65a.29.29,0,0,1,.08.23.42.42,0,0,1-.1.24l-1,1a.38.38,0,0,1-.26.13.4.4,0,0,1-.27-.11,9,9,0,0,0-3-2.13A9.24,9.24,0,0,0,12,8.28,9.19,9.19,0,0,0,8.38,9a8.88,8.88,0,0,0-3,2.12.37.37,0,0,1-.27.12.34.34,0,0,1-.28-.11ZM6.69,13a.31.31,0,0,1-.11-.23.28.28,0,0,1,.08-.22A5.54,5.54,0,0,1,8,11.34a7.38,7.38,0,0,1,1.85-.82,7.89,7.89,0,0,1,4.24,0,7.22,7.22,0,0,1,1.85.82,5.54,5.54,0,0,1,1.38,1.19.32.32,0,0,1,.08.23.42.42,0,0,1-.11.22l-1.12,1.09a.34.34,0,0,1-.52,0,5.24,5.24,0,0,0-1.64-1.17,4.76,4.76,0,0,0-4.06,0,4.81,4.81,0,0,0-1.63,1.16.39.39,0,0,1-.27.13.38.38,0,0,1-.29-.11Zm5.06,4.95a2.61,2.61,0,0,1-.35-.28L9.67,16a.31.31,0,0,1-.12-.19.26.26,0,0,1,0-.21,3.07,3.07,0,0,1,1-.85A3,3,0,0,1,12,14.37a2.82,2.82,0,0,1,1.38.34,3.33,3.33,0,0,1,1,.8.34.34,0,0,1,.07.24.42.42,0,0,1-.11.22l-1.75,1.68a1.68,1.68,0,0,1-.34.28A.54.54,0,0,1,12,18,.54.54,0,0,1,11.75,17.93Z" style="fill:#fff"/></svg>