<svg id="Layer_1" data-name="Layer 1" xmlns="http://www.w3.org/2000/svg" viewBox="0 0 24 24"><rect width="24" height="24" rx="5" style="fill:#29abe2"/><path d="M8.81,19.6A8.36,8.36,0,0,1,4.4,15.18a8.13,8.13,0,0,1,0-6.37A8.43,8.43,0,0,1,6.18,6.18,8.32,8.32,0,0,1,8.81,4.4a8.13,8.13,0,0,1,6.37,0A8.36,8.36,0,0,1,19.6,8.81a8.13,8.13,0,0,1,0,6.37,8.36,8.36,0,0,1-4.41,4.42,8.15,8.15,0,0,1-6.38,0Zm5.76-1.52a6.59,6.59,0,0,0,3.52-3.52A6.43,6.43,0,0,0,18.6,12a6.31,6.31,0,0,0-.52-2.57,6.44,6.44,0,0,0-1.42-2.1,6.55,6.55,0,0,0-2.1-1.42,6.71,6.71,0,0,0-5.13,0,6.44,6.44,0,0,0-2.1,1.42,6.58,6.58,0,0,0-1.41,2.1,6.71,6.71,0,0,0,0,5.13,6.73,6.73,0,0,0,1.41,2.11,6.8,6.8,0,0,0,2.1,1.41,6.73,6.73,0,0,0,5.14,0Zm-4.44-1.93a.59.59,0,0,1-.18-.44.6.6,0,0,1,.18-.44.63.63,0,0,1,.46-.18h.95V11.77h-.81a.69.69,0,0,1-.46-.17.6.6,0,0,1-.18-.44.59.59,0,0,1,.18-.44.65.65,0,0,1,.46-.18h1.51a.64.64,0,0,1,.53.22.85.85,0,0,1,.18.57v3.76h.87a.63.63,0,0,1,.46.18.58.58,0,0,1,.19.44.56.56,0,0,1-.19.44.63.63,0,0,1-.46.18H10.59A.63.63,0,0,1,10.13,16.15Zm1-7.17a1.05,1.05,0,0,1-.32-.76,1.1,1.1,0,0,1,.32-.79,1.12,1.12,0,0,1,1.55,0,1.09,1.09,0,0,1,.31.79,1,1,0,0,1-.31.76,1.1,1.1,0,0,1-1.55,0Z" style="fill:#fff"/></svg>