<svg id="Layer_1" data-name="Layer 1" xmlns="http://www.w3.org/2000/svg" viewBox="0 0 32 32"><path d="M10.72,24.59a.9.9,0,0,1-.24-.65V21.87A4.05,4.05,0,0,0,10,20,14.35,14.35,0,0,0,8.91,18.2c-.44-.62-.89-1.29-1.33-2a12.1,12.1,0,0,1-1.13-2.46A10.15,10.15,0,0,1,6,10.56a12.37,12.37,0,0,1,.72-4.31,9.7,9.7,0,0,1,2-3.33A9.07,9.07,0,0,1,11.92.76,10.55,10.55,0,0,1,16,0a10.48,10.48,0,0,1,4.08.76,9.21,9.21,0,0,1,3.17,2.16,9.7,9.7,0,0,1,2,3.33A12.61,12.61,0,0,1,26,10.56a10.15,10.15,0,0,1-.45,3.17,11.57,11.57,0,0,1-1.12,2.46c-.44.72-.89,1.39-1.33,2A14.35,14.35,0,0,0,22,20a4.05,4.05,0,0,0-.45,1.86v2.07a.94.94,0,0,1-.23.65.82.82,0,0,1-.63.25H11.33A.78.78,0,0,1,10.72,24.59Zm.1,3.63a1.36,1.36,0,0,1-.36-.95,1.33,1.33,0,0,1,.36-.94,1.14,1.14,0,0,1,.87-.39h8.62a1.16,1.16,0,0,1,.88.39,1.34,1.34,0,0,1,.37.94,1.36,1.36,0,0,1-.37.95,1.16,1.16,0,0,1-.88.39H11.69A1.14,1.14,0,0,1,10.82,28.22Zm2.88,3.15a2.26,2.26,0,0,1-1-1.68h6.62a2.26,2.26,0,0,1-1,1.68A3.93,3.93,0,0,1,16,32,3.93,3.93,0,0,1,13.7,31.37Z" style="fill:#f7af00"/></svg>