<svg id="Layer_1" data-name="Layer 1" xmlns="http://www.w3.org/2000/svg" viewBox="0 0 32 32"><path d="M7.47,13.06a1.13,1.13,0,0,1,.76.22.73.73,0,0,1,.24.58,1.27,1.27,0,0,1-.28.74L5,19a1,1,0,0,1-.77.45A.93.93,0,0,1,3.47,19L.29,14.61A1.36,1.36,0,0,1,0,13.87a.71.71,0,0,1,.24-.59A1.14,1.14,0,0,1,1,13.06ZM3.64,10.49a13.66,13.66,0,0,1,7.19-7.15,12.9,12.9,0,0,1,5.18-1,12.53,12.53,0,0,1,4,.66,13.4,13.4,0,0,1,3.62,1.83,13,13,0,0,1,2.86,2.73,1.5,1.5,0,0,1,.37,1.1,1.18,1.18,0,0,1-.5.89,1.23,1.23,0,0,1-1,.23,1.77,1.77,0,0,1-.93-.57A10.43,10.43,0,0,0,22.16,7,10.91,10.91,0,0,0,19.29,5.5a10.85,10.85,0,0,0-7.45.32A10.69,10.69,0,0,0,6.1,11.5a10.69,10.69,0,0,0-.84,4.16H2.57A13.07,13.07,0,0,1,3.64,10.49ZM12,28.5a13.61,13.61,0,0,1-6.47-4.58,1.42,1.42,0,0,1-.38-1.08A1.28,1.28,0,0,1,6.62,21.7a1.68,1.68,0,0,1,.94.59,11.07,11.07,0,0,0,2.28,2.2,10.45,10.45,0,0,0,2.87,1.44,10.86,10.86,0,0,0,3.3.52,10.5,10.5,0,0,0,4.16-.82,10.78,10.78,0,0,0,5.73-5.69,10.52,10.52,0,0,0,.85-4.16h2.69A13,13,0,0,1,28.37,21a13.34,13.34,0,0,1-2.91,4.26,13.76,13.76,0,0,1-4.28,2.89,12.88,12.88,0,0,1-5.17,1A12.6,12.6,0,0,1,12,28.5Zm4.37-20a1.06,1.06,0,0,1,.33.8V18l-1.21-3.69L19.66,20a1.25,1.25,0,0,1,.27.89,1,1,0,0,1-.43.75,1.17,1.17,0,0,1-.89.22,1.33,1.33,0,0,1-.81-.53l-3.1-4.08a1.6,1.6,0,0,1-.24-.44,1.2,1.2,0,0,1-.09-.45v-7a1.07,1.07,0,0,1,.34-.8,1.15,1.15,0,0,1,1.61,0Zm8.22,9.84a1.11,1.11,0,0,1-.76-.23.73.73,0,0,1-.25-.58,1.34,1.34,0,0,1,.28-.72L27,12.44a1,1,0,0,1,.78-.45.94.94,0,0,1,.77.45l3.17,4.39a1.24,1.24,0,0,1,.29.74.74.74,0,0,1-.25.58,1.12,1.12,0,0,1-.77.23Z" style="fill:#29d899"/></svg>