<svg id="Layer_1" data-name="Layer 1" xmlns="http://www.w3.org/2000/svg" viewBox="0 0 32 32"><path d="M3.29,3.52A1,1,0,0,1,3,2.77,1.06,1.06,0,0,1,3.29,2,1,1,0,0,1,4,1.69.93.93,0,0,1,4.75,2l22,23a1.06,1.06,0,0,1,.3.76,1.14,1.14,0,0,1-.3.77,1,1,0,0,1-1.45,0Zm7.39,21.07a.92.92,0,0,1-.24-.66V21.86A4.06,4.06,0,0,0,10,20a14.89,14.89,0,0,0-1.14-1.81c-.46-.61-.92-1.28-1.37-2a11.31,11.31,0,0,1-1.15-2.45,9.67,9.67,0,0,1-.47-3.18,8.69,8.69,0,0,1,.05-.89c0-.3.08-.58.14-.85l14.3,14.93v.73a.42.42,0,0,1-.47.36H11.32A.86.86,0,0,1,10.68,24.59ZM20.27.76a9.49,9.49,0,0,1,3.24,2.16A9.24,9.24,0,0,1,25.6,6.26a12.32,12.32,0,0,1,.72,4.3A9.8,9.8,0,0,1,25.78,14a11.57,11.57,0,0,1-1.32,2.58c-.52.76-1,1.47-1.43,2.14L8.34,3.32A9.08,9.08,0,0,1,11.66.87,10.93,10.93,0,0,1,16.1,0,10.94,10.94,0,0,1,20.27.76ZM10.79,28.22a1.37,1.37,0,0,1,0-1.89,1.18,1.18,0,0,1,.89-.39h8.83a1.17,1.17,0,0,1,.89.39,1.39,1.39,0,0,1,0,1.89,1.17,1.17,0,0,1-.89.39H11.68A1.18,1.18,0,0,1,10.79,28.22Zm2.94,3.15a2.21,2.21,0,0,1-1-1.68h6.76a2.21,2.21,0,0,1-1,1.68A4.09,4.09,0,0,1,16.1,32,4.14,4.14,0,0,1,13.73,31.37Z" style="fill:#f7af00"/></svg>