<svg id="Layer_1" data-name="Layer 1" xmlns="http://www.w3.org/2000/svg" viewBox="0 0 32 32"><path d="M9.82,30.75a16.48,16.48,0,0,1-8.57-8.58A15.48,15.48,0,0,1,0,16,15.47,15.47,0,0,1,1.25,9.82,16.44,16.44,0,0,1,9.81,1.25,15.44,15.44,0,0,1,16,0a15.48,15.48,0,0,1,6.18,1.25,16.48,16.48,0,0,1,8.58,8.57A15.47,15.47,0,0,1,32,16a15.48,15.48,0,0,1-1.25,6.18,16.48,16.48,0,0,1-8.57,8.58A15.49,15.49,0,0,1,16,32,15.47,15.47,0,0,1,9.82,30.75Zm4.53-14.9a1.63,1.63,0,0,0,1.13-.36,1.47,1.47,0,0,0,.4-1.15V9a1.23,1.23,0,0,0-2.11-.89,1.2,1.2,0,0,0-.36.89v.66l.18,2.26-3.78-4a1.34,1.34,0,0,0-1.91,0,1.31,1.31,0,0,0,0,1.92l3.94,3.76-2.19-.19H9a1.21,1.21,0,0,0-.89.36,1.24,1.24,0,0,0-.35.88,1.22,1.22,0,0,0,.35.88,1.25,1.25,0,0,0,.89.35Zm3.88,8a1.21,1.21,0,0,0,.36-.89v-.67l-.18-2.27,3.77,4a1.36,1.36,0,0,0,2.31-1,1.29,1.29,0,0,0-.42-.95l-3.93-3.76,2.18.19.68,0a1.2,1.2,0,0,0,.88-.37A1.24,1.24,0,0,0,23,16.1H17.63a1.6,1.6,0,0,0-1.12.36,1.53,1.53,0,0,0-.39,1.16V23a1.21,1.21,0,0,0,.36.89,1.19,1.19,0,0,0,.87.36A1.22,1.22,0,0,0,18.23,23.89Z" style="fill:#2dc700"/></svg>