<svg id="Layer_1" data-name="Layer 1" xmlns="http://www.w3.org/2000/svg" viewBox="0 0 32 32"><path d="M10.59,30.9A14.35,14.35,0,0,1,3.1,23.4a13.83,13.83,0,0,1,0-10.81,14.47,14.47,0,0,1,3-4.46,14.21,14.21,0,0,1,4.46-3,13.85,13.85,0,0,1,10.82,0,14.35,14.35,0,0,1,7.5,7.49,13.83,13.83,0,0,1,0,10.81,14.35,14.35,0,0,1-7.49,7.5,13.85,13.85,0,0,1-10.82,0Zm4-13a1.41,1.41,0,0,0,1-.32,1.29,1.29,0,0,0,.35-1V11.84a1,1,0,0,0-.33-.78,1.06,1.06,0,0,0-.77-.32,1,1,0,0,0-.75.32,1.06,1.06,0,0,0-.32.78v.58l.17,2-3.32-3.47a1.1,1.1,0,0,0-.83-.36,1.08,1.08,0,0,0-.83.36,1.05,1.05,0,0,0-.36.84,1.09,1.09,0,0,0,.37.83l3.45,3.29-1.92-.16h-.6a1,1,0,0,0-.77.31,1.06,1.06,0,0,0-.31.77,1,1,0,0,0,.31.77,1,1,0,0,0,.77.31Zm3.39,7a1.06,1.06,0,0,0,.32-.78v-.58l-.17-2L21.41,25a1.14,1.14,0,0,0,1.66,0,1.12,1.12,0,0,0,.36-.84,1.09,1.09,0,0,0-.37-.83l-3.44-3.29,1.91.16h.59a1.06,1.06,0,0,0,.78-.31,1.11,1.11,0,0,0,.31-.77,1.07,1.07,0,0,0-.31-.77,1.06,1.06,0,0,0-.78-.31H17.43a1.35,1.35,0,0,0-1,.32,1.29,1.29,0,0,0-.35,1v4.71a1.06,1.06,0,0,0,.32.78,1.07,1.07,0,0,0,1.53,0Z" style="fill:#2dc700"/></svg>