<svg id="Layer_1" data-name="Layer 1" xmlns="http://www.w3.org/2000/svg" viewBox="0 0 32 32"><path d="M9.82,30.75a16.48,16.48,0,0,1-8.57-8.58A15.48,15.48,0,0,1,0,16,15.47,15.47,0,0,1,1.25,9.82,16.44,16.44,0,0,1,9.81,1.25,15.44,15.44,0,0,1,16,0a15.48,15.48,0,0,1,6.18,1.25,16.48,16.48,0,0,1,8.58,8.57A15.47,15.47,0,0,1,32,16a15.48,15.48,0,0,1-1.25,6.18,16.48,16.48,0,0,1-8.57,8.58A15.49,15.49,0,0,1,16,32,15.47,15.47,0,0,1,9.82,30.75Zm2-8.45L16,18.11l4.19,4.19a1.51,1.51,0,0,0,1.09.45,1.4,1.4,0,0,0,1-.44,1.5,1.5,0,0,0,0-2.11L18.11,16l4.21-4.22a1.45,1.45,0,0,0,.43-1,1.45,1.45,0,0,0-1.47-1.47,1.36,1.36,0,0,0-1,.45L16,13.94l-4.2-4.21a1.4,1.4,0,0,0-1.06-.42,1.42,1.42,0,0,0-1,.42,1.43,1.43,0,0,0-.43,1,1.4,1.4,0,0,0,.44,1L13.9,16l-4.2,4.2a1.43,1.43,0,0,0-.44,1,1.49,1.49,0,0,0,.43,1.06,1.4,1.4,0,0,0,1,.44A1.49,1.49,0,0,0,11.83,22.3Z" style="fill:#ff2d00"/></svg>