<svg id="Layer_1" data-name="Layer 1" xmlns="http://www.w3.org/2000/svg" viewBox="0 0 32 32"><path d="M6,31.8a1,1,0,0,1-.33-.55L5.34,30l-.24-.08a1.75,1.75,0,0,1-.29-.13l-1.15.7a1,1,0,0,1-.6.16.82.82,0,0,1-.58-.28l-.8-.81a.86.86,0,0,1-.26-.57,1.05,1.05,0,0,1,.15-.63l.68-1.15-.09-.24a1.6,1.6,0,0,1-.1-.23L.75,26.38A1.06,1.06,0,0,1,.2,26a1,1,0,0,1-.2-.6V24.27a.87.87,0,0,1,.2-.56,1,1,0,0,1,.55-.34L2,23.05c0-.09.08-.17.11-.25s.07-.16.11-.23l-.73-1.18a1,1,0,0,1-.14-.61.93.93,0,0,1,.29-.57l.82-.8a.83.83,0,0,1,1.14-.16L4.8,20a.91.91,0,0,1,.26-.13l.28-.1.31-1.32A1,1,0,0,1,6,17.9a.91.91,0,0,1,.59-.21H7.75a.87.87,0,0,1,.59.21,1,1,0,0,1,.33.53L9,19.76a1.33,1.33,0,0,0,.24.1.8.8,0,0,1,.27.12l1.18-.73a.85.85,0,0,1,1.14.16l.84.8a.77.77,0,0,1,.27.56,1,1,0,0,1-.15.62l-.71,1.18c0,.07.07.14.1.22a2,2,0,0,1,.11.26l1.29.32a1,1,0,0,1,.55.34.83.83,0,0,1,.21.56v1.17a1,1,0,0,1-.2.6,1.13,1.13,0,0,1-.56.34l-1.31.31a1.55,1.55,0,0,1-.08.23.94.94,0,0,1-.13.24l.68,1.14a1.12,1.12,0,0,1,.17.64.93.93,0,0,1-.26.57l-.8.81a.88.88,0,0,1-.59.28,1.08,1.08,0,0,1-.61-.16l-1.14-.7a1.17,1.17,0,0,1-.25.13L9,30l-.32,1.3a.84.84,0,0,1-.32.55,1,1,0,0,1-.6.2H6.57A1,1,0,0,1,6,31.8Zm2.76-5.36a2.17,2.17,0,0,0,.67-1.58,2.22,2.22,0,0,0-.67-1.6,2.09,2.09,0,0,0-1.57-.65,2.14,2.14,0,0,0-1.59.66,2.26,2.26,0,0,0,0,3.17,2.25,2.25,0,0,0,3.16,0Zm-1.56-22A4.56,4.56,0,0,1,8.3,1.14,4.46,4.46,0,0,1,11.62,0H17.8V10.27a2.22,2.22,0,0,0,2.5,2.52H30.48V24.91a4.53,4.53,0,0,1-1.12,3.33,4.5,4.5,0,0,1-3.31,1.13H14.83a8.58,8.58,0,0,0,.93-2.15,8.5,8.5,0,0,0,.33-2.38,8.66,8.66,0,0,0-.69-3.44,9,9,0,0,0-4.77-4.76,8.56,8.56,0,0,0-3.45-.71ZM19.79,10V.14a2,2,0,0,1,.93.38,6.39,6.39,0,0,1,1,.84l7.4,7.52a7.7,7.7,0,0,1,.85,1,1.92,1.92,0,0,1,.38.91H20.57A.68.68,0,0,1,19.79,10Z" style="fill:#999"/></svg>