<svg id="Layer_1" data-name="Layer 1" xmlns="http://www.w3.org/2000/svg" viewBox="0 0 24 24"><rect width="24" height="24" rx="5" style="fill:#34c759"/><path d="M10.73,19.81a.86.86,0,0,1-.31-.52L10,17.7l-.37-.14-.34-.15-1.39.85a.92.92,0,0,1-.59.15.86.86,0,0,1-.54-.26l-1-1a.86.86,0,0,1-.26-.55.9.9,0,0,1,.15-.6l.85-1.38-.15-.34c-.05-.12-.09-.23-.13-.35l-1.6-.38a.88.88,0,0,1-.52-.32A.86.86,0,0,1,4,12.69V11.35a.88.88,0,0,1,.19-.58.86.86,0,0,1,.52-.31l1.59-.38a2.43,2.43,0,0,1,.13-.38l.14-.32L5.72,8a.92.92,0,0,1-.15-.59.81.81,0,0,1,.26-.54l1-1a1,1,0,0,1,.53-.26.92.92,0,0,1,.57.13l1.41.87.35-.16L10,6.31l.38-1.6A.87.87,0,0,1,11.31,4h1.38a.9.9,0,0,1,.58.19.83.83,0,0,1,.3.52L14,6.32l.37.14a2.68,2.68,0,0,1,.34.16l1.42-.88a.85.85,0,0,1,.57-.12.94.94,0,0,1,.52.25l1,1a.87.87,0,0,1,.27.54,1,1,0,0,1-.16.59l-.85,1.41a2.84,2.84,0,0,0,.14.32c.05.12.09.25.14.38l1.58.38a.86.86,0,0,1,.52.31.88.88,0,0,1,.19.58v1.34a.86.86,0,0,1-.19.58.88.88,0,0,1-.52.32l-1.6.38-.12.35c-.05.11-.1.23-.16.34L18.26,16a.86.86,0,0,1,.16.6.87.87,0,0,1-.27.55l-1,1a.86.86,0,0,1-.54.26.9.9,0,0,1-.59-.15l-1.39-.85-.34.15L14,17.7l-.39,1.59a.81.81,0,0,1-.3.52.9.9,0,0,1-.58.19H11.31A.9.9,0,0,1,10.73,19.81Zm2.59-5.54a2.55,2.55,0,0,0,.95-.95A2.58,2.58,0,0,0,14.63,12a2.46,2.46,0,0,0-.36-1.31,2.7,2.7,0,0,0-.95-.95,2.66,2.66,0,0,0-2.64,0,2.88,2.88,0,0,0-.95.95A2.46,2.46,0,0,0,9.37,12a2.58,2.58,0,0,0,.36,1.33,2.55,2.55,0,0,0,.95.95,2.6,2.6,0,0,0,2.64,0Z" style="fill:#fff"/></svg>