<svg id="Layer_1" data-name="Layer 1" xmlns="http://www.w3.org/2000/svg" viewBox="0 0 32 32"><path d="M2.74,17.63V27.69A1.31,1.31,0,0,0,4.05,29H14.32A11.56,11.56,0,0,0,2.74,17.63Zm0-8.29v4.28A15.6,15.6,0,0,1,18.23,29h4.43A19.89,19.89,0,0,0,2.74,9.34ZM29,27.68V18.74a28.37,28.37,0,0,0-16.64-16H4.05A1.32,1.32,0,0,0,2.74,4.05V5.33A23.93,23.93,0,0,1,26.57,29h1.12A1.3,1.3,0,0,0,29,27.68ZM25.53,6.41A34.39,34.39,0,0,1,29,10.51V4.05a1.32,1.32,0,0,0-1.31-1.32H21.05a33.18,33.18,0,0,1,4.48,3.68Z" style="fill:#b600c6"/></svg>