<svg id="Layer_1" data-name="Layer 1" xmlns="http://www.w3.org/2000/svg" viewBox="0 0 32 32"><path d="M9.82,30.75a16.48,16.48,0,0,1-8.57-8.58A15.48,15.48,0,0,1,0,16,15.47,15.47,0,0,1,1.25,9.82,16.44,16.44,0,0,1,9.81,1.25,15.44,15.44,0,0,1,16,0a15.48,15.48,0,0,1,6.18,1.25,16.48,16.48,0,0,1,8.58,8.57A15.47,15.47,0,0,1,32,16a15.48,15.48,0,0,1-1.25,6.18,16.48,16.48,0,0,1-8.57,8.58A15.49,15.49,0,0,1,16,32,15.47,15.47,0,0,1,9.82,30.75Zm0-10.4A7.23,7.23,0,0,0,12.39,23a7.13,7.13,0,0,0,7.18,0,7.28,7.28,0,0,0,2.58-2.59,6.83,6.83,0,0,0,1-3.59,1.16,1.16,0,0,0-.37-.87,1.24,1.24,0,0,0-1.73,0,1.19,1.19,0,0,0-.36.87A4.53,4.53,0,0,1,20,19.14a4.69,4.69,0,0,1-1.68,1.69,4.67,4.67,0,0,1-4.72,0A4.62,4.62,0,0,1,12,19.14a4.64,4.64,0,0,1,1.49-6.27,4.18,4.18,0,0,1,2.17-.65l.54,0-1.27,1.27a1,1,0,0,0-.28.73,1.08,1.08,0,0,0,.33.82,1.19,1.19,0,0,0,.81.31,1.1,1.1,0,0,0,.79-.34l3-3a1,1,0,0,0,.33-.81,1.17,1.17,0,0,0-.33-.83l-3-3A1.14,1.14,0,0,0,16.19,7a.92.92,0,0,0-.46-.11,1.11,1.11,0,0,0-.82.33A1.08,1.08,0,0,0,14.6,8a1.25,1.25,0,0,0,.08.45,1.71,1.71,0,0,0,.21.35l.93,1-.18,0h-.22a6.3,6.3,0,0,0-3.25,1,7.33,7.33,0,0,0-2.41,2.51,6.85,6.85,0,0,0-.9,3.47A7,7,0,0,0,9.82,20.35Z" style="fill:#2dc700"/></svg>