<svg id="Layer_1" data-name="Layer 1" xmlns="http://www.w3.org/2000/svg" viewBox="0 0 32 32"><path d="M9.82,30.75a16.48,16.48,0,0,1-8.57-8.58A15.48,15.48,0,0,1,0,16,15.47,15.47,0,0,1,1.25,9.82,16.44,16.44,0,0,1,9.81,1.25,15.44,15.44,0,0,1,16,0a15.48,15.48,0,0,1,6.18,1.25,16.48,16.48,0,0,1,8.58,8.57A15.47,15.47,0,0,1,32,16a15.48,15.48,0,0,1-1.25,6.18,16.48,16.48,0,0,1-8.57,8.58A15.49,15.49,0,0,1,16,32,15.47,15.47,0,0,1,9.82,30.75ZM5.06,17a.65.65,0,0,0,.72.46H7.33A8.89,8.89,0,0,0,9,21.27a8.54,8.54,0,0,0,3,2.54,9.17,9.17,0,0,0,6.84.47,7.49,7.49,0,0,0,2.31-1.23A1.84,1.84,0,0,0,21.89,22a1.15,1.15,0,0,0-.28-1.06,1.28,1.28,0,0,0-.93-.5,1.74,1.74,0,0,0-1.1.36,6.39,6.39,0,0,1-1.64.92,5.43,5.43,0,0,1-1.89.32,6.3,6.3,0,0,1-4.82-2.21A5.62,5.62,0,0,1,10,17.49h1.5a.67.67,0,0,0,.73-.46,1,1,0,0,0-.19-.93L9.48,12.61a1.06,1.06,0,0,0-.84-.48,1,1,0,0,0-.86.48L5.26,16.1A1,1,0,0,0,5.06,17Zm6.35-5.51a1.72,1.72,0,0,0,1.09-.35,6,6,0,0,1,1.64-.93A5.37,5.37,0,0,1,16,9.93a6.19,6.19,0,0,1,2.72.6,6.35,6.35,0,0,1,2.12,1.61,6,6,0,0,1,1.23,2.32H20.51a.68.68,0,0,0-.74.47,1,1,0,0,0,.18.91l2.58,3.51a1.07,1.07,0,0,0,.85.46,1,1,0,0,0,.86-.46l2.52-3.51a1,1,0,0,0,.2-.92.67.67,0,0,0-.74-.46H24.75a8.68,8.68,0,0,0-4.68-6.32A8.93,8.93,0,0,0,16,7.22a8.6,8.6,0,0,0-2.77.45,7.52,7.52,0,0,0-2.33,1.24A1.8,1.8,0,0,0,10.2,10a1.19,1.19,0,0,0,.27,1A1.3,1.3,0,0,0,11.41,11.52Z" style="fill:#2dc700"/></svg>