<svg id="Layer_1" data-name="Layer 1" xmlns="http://www.w3.org/2000/svg" viewBox="0 0 32 32"><path d="M1.61,12.78,12.78,1.61A4.7,4.7,0,0,1,16,0a4.55,4.55,0,0,1,3.22,1.57L30.43,12.79A4.54,4.54,0,0,1,32,16a4.72,4.72,0,0,1-1.61,3.23L19.24,30.39A4.72,4.72,0,0,1,16,32a4.55,4.55,0,0,1-3.22-1.57L1.57,19.22A4.55,4.55,0,0,1,0,16,4.7,4.7,0,0,1,1.61,12.78Zm8.12-.56v3.5a4,4,0,0,0,1,3,4,4,0,0,0,3,1h4V21.5a.92.92,0,0,0,.58,1,1.11,1.11,0,0,0,1.17-.22L23,19.46a1.48,1.48,0,0,0,.65-1.12A1.43,1.43,0,0,0,23,17.21l-3.54-2.78a1.11,1.11,0,0,0-1.17-.22,1,1,0,0,0-.58,1V17H14a1.64,1.64,0,0,1-1.21-.41,1.71,1.71,0,0,1-.41-1.26v-3.1A1.56,1.56,0,0,0,12,11.13a1.34,1.34,0,0,0-1-.4,1.2,1.2,0,0,0-1,.4A1.6,1.6,0,0,0,9.73,12.22Z" style="fill:#fd2c55"/></svg>