<svg id="Layer_1" data-name="Layer 1" xmlns="http://www.w3.org/2000/svg" viewBox="0 0 24 24"><rect width="24" height="24" rx="5" style="fill:#b600c6"/><path d="M5,12.94V18.3a.7.7,0,0,0,.7.7h5.47A6.16,6.16,0,0,0,5,12.94ZM5,8.52V10.8A8.32,8.32,0,0,1,13.26,19h2.36A10.61,10.61,0,0,0,5,8.52ZM19,18.3V13.53A15.15,15.15,0,0,0,10.12,5H5.7a.7.7,0,0,0-.7.7v.69A12.74,12.74,0,0,1,17.7,19h.6a.71.71,0,0,0,.7-.7ZM17.15,7A19.14,19.14,0,0,1,19,9.15V5.7a.7.7,0,0,0-.7-.7H14.76a17.78,17.78,0,0,1,2.39,2Z" style="fill:#fff"/></svg>