<svg id="Layer_1" data-name="Layer 1" xmlns="http://www.w3.org/2000/svg" viewBox="0 0 32 32"><path d="M13.47,31.62a1.77,1.77,0,0,1-.63-1.05l-.76-3.17-.73-.28c-.24-.09-.47-.19-.69-.29l-2.78,1.7a2,2,0,0,1-1.18.29,1.72,1.72,0,0,1-1.08-.52L3.7,26.38a1.78,1.78,0,0,1-.21-2.3l1.68-2.76c-.1-.23-.2-.46-.29-.69a6.37,6.37,0,0,1-.25-.69l-3.22-.77a1.78,1.78,0,0,1-1-.62A1.85,1.85,0,0,1,0,17.38V14.69a1.81,1.81,0,0,1,.38-1.15,1.78,1.78,0,0,1,1-.62l3.19-.75a4.84,4.84,0,0,1,.25-.76c.11-.24.2-.46.29-.66L3.44,7.94a1.9,1.9,0,0,1-.31-1.18,1.7,1.7,0,0,1,.54-1.08l2-1.94a1.79,1.79,0,0,1,1-.51,1.85,1.85,0,0,1,1.15.24l2.82,1.75a7.44,7.44,0,0,1,.69-.32l.75-.28.76-3.19a1.83,1.83,0,0,1,.63-1A1.81,1.81,0,0,1,14.62,0h2.76a1.81,1.81,0,0,1,1.15.38,1.77,1.77,0,0,1,.62,1l.77,3.22.75.27c.24.1.46.2.67.31l2.84-1.76a1.82,1.82,0,0,1,1.14-.24,1.92,1.92,0,0,1,1,.51l2,1.94a1.61,1.61,0,0,1,.54,1.08,1.9,1.9,0,0,1-.31,1.18l-1.7,2.81.27.66a8.11,8.11,0,0,1,.29.76l3.17.75a1.78,1.78,0,0,1,1,.62A1.81,1.81,0,0,1,32,14.69v2.69a1.85,1.85,0,0,1-.38,1.17,1.78,1.78,0,0,1-1,.62l-3.2.77c-.08.23-.17.46-.26.69s-.19.46-.3.69l1.7,2.76a1.76,1.76,0,0,1,.31,1.19,1.73,1.73,0,0,1-.54,1.11L26.38,28.3a1.72,1.72,0,0,1-1.08.52,1.93,1.93,0,0,1-1.18-.29l-2.78-1.7c-.22.1-.45.2-.69.29l-.73.28-.77,3.17a1.71,1.71,0,0,1-.62,1.05,1.81,1.81,0,0,1-1.15.38H14.62A1.81,1.81,0,0,1,13.47,31.62Zm5.18-11.07a5.46,5.46,0,0,0,1.9-1.92,5.12,5.12,0,0,0,.7-2.65,5,5,0,0,0-.7-2.62,5.37,5.37,0,0,0-1.9-1.89,5.2,5.2,0,0,0-5.28,0,5.4,5.4,0,0,0-1.91,1.89A4.93,4.93,0,0,0,10.75,16a5.12,5.12,0,0,0,.7,2.65,5.41,5.41,0,0,0,1.91,1.92,5.28,5.28,0,0,0,5.29,0Z" style="fill:#999"/></svg>