<svg id="Layer_1" data-name="Layer 1" xmlns="http://www.w3.org/2000/svg" viewBox="0 0 32 32"><path d="M1.13,27.54A4.42,4.42,0,0,1,0,24.26V7.82A4.42,4.42,0,0,1,1.13,4.54,4.52,4.52,0,0,1,4.46,3.42H27.54a4.52,4.52,0,0,1,3.33,1.12A4.42,4.42,0,0,1,32,7.82V24.26a4.42,4.42,0,0,1-1.13,3.28,4.52,4.52,0,0,1-3.33,1.12H4.46A4.52,4.52,0,0,1,1.13,27.54ZM5.39,14.85a1.09,1.09,0,0,0,.15.79,1.07,1.07,0,0,0,.62.48,1.11,1.11,0,0,0,.93-.19L11,13.44a1.3,1.3,0,0,0,.58-.73,1.52,1.52,0,0,0,0-.92,1.34,1.34,0,0,0-.57-.72L7.09,8.59a1.16,1.16,0,0,0-.93-.2,1,1,0,0,0-.62.49,1.07,1.07,0,0,0-.15.78,1,1,0,0,0,.54.7l3.12,1.89L5.93,14.16A1,1,0,0,0,5.39,14.85Zm6.73,1.71a1,1,0,0,0,.72.3h5.25a1,1,0,0,0,.74-.3,1.06,1.06,0,0,0,0-1.46,1,1,0,0,0-.74-.29H12.84a1,1,0,0,0-.72.29,1,1,0,0,0,0,1.46Z" style="fill:#29d899"/></svg>