<svg id="Layer_1" data-name="Layer 1" xmlns="http://www.w3.org/2000/svg" viewBox="0 0 32 32"><path d="M9.82,30.75a16.48,16.48,0,0,1-8.57-8.58A15.48,15.48,0,0,1,0,16,15.47,15.47,0,0,1,1.25,9.82,16.44,16.44,0,0,1,9.81,1.25,15.44,15.44,0,0,1,16,0a15.48,15.48,0,0,1,6.18,1.25,16.48,16.48,0,0,1,8.58,8.57A15.47,15.47,0,0,1,32,16a15.48,15.48,0,0,1-1.25,6.18,16.48,16.48,0,0,1-8.57,8.58A15.49,15.49,0,0,1,16,32,15.47,15.47,0,0,1,9.82,30.75ZM30.16,17.07H1.84V14.89H30.16Zm-9,11.35a13.7,13.7,0,0,0,4.3-2.92,14.05,14.05,0,0,0,2.92-4.3A12.88,12.88,0,0,0,29.48,16a12.82,12.82,0,0,0-1.06-5.19A13.7,13.7,0,0,0,25.5,6.5a14,14,0,0,0-4.31-2.92A12.86,12.86,0,0,0,16,2.52a12.83,12.83,0,0,0-5.2,1.06A13.87,13.87,0,0,0,3.58,10.8,12.82,12.82,0,0,0,2.52,16,12.88,12.88,0,0,0,3.58,21.2,14.05,14.05,0,0,0,6.5,25.5a13.7,13.7,0,0,0,4.3,2.92A12.82,12.82,0,0,0,16,29.48,12.84,12.84,0,0,0,21.2,28.42ZM11.41,10.29a18.09,18.09,0,0,1-3.9-1.12A9.36,9.36,0,0,1,4.72,7.45L6.39,6.08A9.6,9.6,0,0,0,8.82,7.4a16.25,16.25,0,0,0,3.27.84,25.19,25.19,0,0,0,3.9.28,25.36,25.36,0,0,0,3.92-.28,16.25,16.25,0,0,0,3.27-.84,9.6,9.6,0,0,0,2.43-1.32l1.67,1.37a9.36,9.36,0,0,1-2.79,1.72,18.09,18.09,0,0,1-3.9,1.12,25.09,25.09,0,0,1-4.6.4A25,25,0,0,1,11.41,10.29Zm9.18,11.48a18.67,18.67,0,0,1,3.9,1.12,9.36,9.36,0,0,1,2.79,1.72L25.61,26a9.6,9.6,0,0,0-2.43-1.32,17,17,0,0,0-3.27-.83A25.32,25.32,0,0,0,16,23.54a25.15,25.15,0,0,0-3.9.29,17,17,0,0,0-3.27.83A9.6,9.6,0,0,0,6.39,26L4.72,24.61a9.36,9.36,0,0,1,2.79-1.72,18.67,18.67,0,0,1,3.9-1.12,26.54,26.54,0,0,1,9.18,0Zm-7.66,7.81a9.67,9.67,0,0,1-2.52-3.09,18.45,18.45,0,0,1-1.7-4.66A25.82,25.82,0,0,1,8.09,16a26,26,0,0,1,.62-5.82,18.47,18.47,0,0,1,1.7-4.68,9.71,9.71,0,0,1,2.51-3.1,4.84,4.84,0,0,1,6.17,0,9.87,9.87,0,0,1,2.52,3.1A18.47,18.47,0,0,1,23.3,10.2,26.05,26.05,0,0,1,23.91,16a25.84,25.84,0,0,1-.61,5.81,18.08,18.08,0,0,1-1.7,4.66,9.82,9.82,0,0,1-2.53,3.09,4.8,4.8,0,0,1-6.14,0Zm.94-25.22A9.32,9.32,0,0,0,12,7.15a19.2,19.2,0,0,0-1.27,4.06A24.77,24.77,0,0,0,10.3,16a24.43,24.43,0,0,0,.46,4.77,19.19,19.19,0,0,0,1.27,4,9.32,9.32,0,0,0,1.84,2.79,3,3,0,0,0,2.12,1,3,3,0,0,0,2.15-1A9.5,9.5,0,0,0,20,24.83a19.19,19.19,0,0,0,1.27-4A24.43,24.43,0,0,0,21.7,16a24.77,24.77,0,0,0-.46-4.81A19.2,19.2,0,0,0,20,7.15a9.5,9.5,0,0,0-1.83-2.79,3,3,0,0,0-2.15-1A3,3,0,0,0,13.87,4.36Zm3.22-2.83V30.39H14.93V1.53Z" style="fill:#29ceff"/></svg>