<svg id="Layer_1" data-name="Layer 1" xmlns="http://www.w3.org/2000/svg" viewBox="0 0 32 32"><path d="M.29,12.85a.74.74,0,0,1-.19-.46A.59.59,0,0,1,.25,12a16.5,16.5,0,0,1,4.12-3.6A21.39,21.39,0,0,1,9.84,5.89a21.76,21.76,0,0,1,12.32,0,22.44,22.44,0,0,1,5.47,2.46A16.83,16.83,0,0,1,31.74,12a.56.56,0,0,1,.16.44.7.7,0,0,1-.2.46l-1.91,1.91a.68.68,0,0,1-.51.23.65.65,0,0,1-.51-.21A16.89,16.89,0,0,0,23,10.7a17.65,17.65,0,0,0-7-1.39A17.48,17.48,0,0,0,9,10.7a17,17,0,0,0-5.78,4.07.77.77,0,0,1-.53.24.68.68,0,0,1-.52-.23Zm5.48,5.49a.62.62,0,0,1-.22-.43.56.56,0,0,1,.17-.43,10.84,10.84,0,0,1,2.65-2.29,14.43,14.43,0,0,1,3.55-1.56A14,14,0,0,1,16,13.05a14.14,14.14,0,0,1,4.09.58,14.1,14.1,0,0,1,3.55,1.56,10.66,10.66,0,0,1,2.65,2.29.56.56,0,0,1,.15.44.61.61,0,0,1-.21.42l-2.14,2.1a.76.76,0,0,1-.51.24.68.68,0,0,1-.5-.24,10.15,10.15,0,0,0-3.16-2.25,9.27,9.27,0,0,0-7.8,0A9.74,9.74,0,0,0,9,20.4a.75.75,0,0,1-.52.26.67.67,0,0,1-.54-.21Zm9.73,9.52a3.91,3.91,0,0,1-.67-.54L11.49,24.1a.77.77,0,0,1-.23-.38.5.5,0,0,1,.08-.39,5.87,5.87,0,0,1,1.95-1.63A5.59,5.59,0,0,1,16,21a5.68,5.68,0,0,1,2.66.64,6.16,6.16,0,0,1,1.95,1.56.57.57,0,0,1,.13.45.76.76,0,0,1-.21.43l-3.36,3.22a3.11,3.11,0,0,1-.66.54A1,1,0,0,1,16,28,1.08,1.08,0,0,1,15.5,27.86Z" style="fill:#29ceff"/></svg>