<svg id="Layer_2" data-name="Layer 2" xmlns="http://www.w3.org/2000/svg" viewBox="0 0 64 64"><path d="M19.64,61.49A32.64,32.64,0,0,1,2.51,44.34,30.79,30.79,0,0,1,0,32,30.73,30.73,0,0,1,2.51,19.64,32.69,32.69,0,0,1,19.61,2.51,30.81,30.81,0,0,1,32,0,30.79,30.79,0,0,1,44.34,2.51,32.64,32.64,0,0,1,61.49,19.64,30.73,30.73,0,0,1,64,32a30.79,30.79,0,0,1-2.51,12.36A32.64,32.64,0,0,1,44.36,61.49,30.82,30.82,0,0,1,32,64,30.73,30.73,0,0,1,19.64,61.49ZM17.93,34.2a3.06,3.06,0,0,0,2.21.85h8.78v8.81a3,3,0,0,0,.85,2.2,2.93,2.93,0,0,0,2.18.87,3,3,0,0,0,2.23-.87,3,3,0,0,0,.87-2.2V35.05h8.81a3.06,3.06,0,0,0,2.21-.85A2.91,2.91,0,0,0,47,32a3,3,0,0,0-3.1-3.1H35.05V20.14a3.08,3.08,0,0,0-.87-2.25A3,3,0,0,0,32,17a2.94,2.94,0,0,0-2.18.88,3.14,3.14,0,0,0-.85,2.25v8.78H20.14A3,3,0,0,0,17,32,2.91,2.91,0,0,0,17.93,34.2Z" style="fill:#fbd700"/></svg>