<svg id="Layer_2" data-name="Layer 2" xmlns="http://www.w3.org/2000/svg" viewBox="0 0 64 64"><path d="M19.64,61.49A32.64,32.64,0,0,1,2.51,44.34,30.79,30.79,0,0,1,0,32,30.73,30.73,0,0,1,2.51,19.64,32.69,32.69,0,0,1,19.61,2.51,30.81,30.81,0,0,1,32,0,30.79,30.79,0,0,1,44.34,2.51,32.64,32.64,0,0,1,61.49,19.64,30.73,30.73,0,0,1,64,32a30.79,30.79,0,0,1-2.51,12.36A32.64,32.64,0,0,1,44.36,61.49,30.82,30.82,0,0,1,32,64,30.73,30.73,0,0,1,19.64,61.49Zm4-16.88L32,36.22l8.39,8.39a3,3,0,0,0,2.16.89,2.78,2.78,0,0,0,2.09-.88,2.93,2.93,0,0,0,.85-2.12,3,3,0,0,0-.86-2.1L36.22,32l8.42-8.45a2.92,2.92,0,0,0,.86-2.07,2.9,2.9,0,0,0-2.94-2.94,2.78,2.78,0,0,0-2.07.9L32,27.87l-8.41-8.41a2.79,2.79,0,0,0-2.1-.84,2.86,2.86,0,0,0-2.09.84,2.79,2.79,0,0,0-.85,2.1,2.82,2.82,0,0,0,.86,2L27.81,32l-8.42,8.41a2.86,2.86,0,0,0-.86,2.07,2.93,2.93,0,0,0,.85,2.12,2.78,2.78,0,0,0,2.09.88A3,3,0,0,0,23.66,44.61Z" style="fill:#ff2d00"/></svg>