<svg id="Layer_2" data-name="Layer 2" xmlns="http://www.w3.org/2000/svg" viewBox="0 0 64 64"><path d="M19.64,61.49A32.64,32.64,0,0,1,2.51,44.34,30.79,30.79,0,0,1,0,32,30.73,30.73,0,0,1,2.51,19.64,32.69,32.69,0,0,1,19.61,2.51,30.81,30.81,0,0,1,32,0,30.79,30.79,0,0,1,44.34,2.51,32.64,32.64,0,0,1,61.49,19.64,30.73,30.73,0,0,1,64,32a30.79,30.79,0,0,1-2.51,12.36A32.64,32.64,0,0,1,44.36,61.49,30.82,30.82,0,0,1,32,64,30.73,30.73,0,0,1,19.64,61.49Zm10.5-14.67a4.14,4.14,0,0,0,1.29-1.19L45.9,23.08A7.15,7.15,0,0,0,46.48,22a2.94,2.94,0,0,0,.23-1.11,2.43,2.43,0,0,0-.91-2,3.22,3.22,0,0,0-2.06-.74,3,3,0,0,0-2.57,1.64L28.43,40.18,22.49,32.7a3.78,3.78,0,0,0-1.18-1.09A2.93,2.93,0,0,0,20,31.3a2.7,2.7,0,0,0-2,.87,2.83,2.83,0,0,0-.83,2,3.25,3.25,0,0,0,.21,1.15,4.55,4.55,0,0,0,.62,1.08l7.58,9.19a5,5,0,0,0,1.39,1.22,3.3,3.3,0,0,0,1.61.38A3.15,3.15,0,0,0,30.14,46.82Z" style="fill:#2dc700"/></svg>