<svg id="Layer_2" data-name="Layer 2" xmlns="http://www.w3.org/2000/svg" viewBox="0 0 64 64"><path d="M19.64,61.49A32.64,32.64,0,0,1,2.51,44.34,30.78,30.78,0,0,1,0,32,30.75,30.75,0,0,1,2.51,19.64,32.78,32.78,0,0,1,19.61,2.51,30.81,30.81,0,0,1,32,0,30.79,30.79,0,0,1,44.34,2.51,32.73,32.73,0,0,1,61.49,19.64,30.75,30.75,0,0,1,64,32a30.78,30.78,0,0,1-2.51,12.35A32.64,32.64,0,0,1,44.36,61.49,30.82,30.82,0,0,1,32,64,30.73,30.73,0,0,1,19.64,61.49ZM34.12,47.44A2.71,2.71,0,0,0,35,45.38v-15l-.31-6.62,2.88,3.65,3.56,3.71a2.49,2.49,0,0,0,2,.83A2.62,2.62,0,0,0,45,31.18a2.5,2.5,0,0,0,.76-1.89,2.81,2.81,0,0,0-.77-2L34.37,16.55a3.16,3.16,0,0,0-2.32-1.11,3.08,3.08,0,0,0-2.32,1.11L19.09,27.32a2.71,2.71,0,0,0-.78,2,2.5,2.5,0,0,0,.76,1.89,2.63,2.63,0,0,0,1.93.74,2.93,2.93,0,0,0,1.09-.21,2.19,2.19,0,0,0,.86-.62l3.59-3.74,2.85-3.59-.28,6.59v15a2.74,2.74,0,0,0,.83,2.06,3,3,0,0,0,2.11.78A2.93,2.93,0,0,0,34.12,47.44Z" style="fill:#1fa3ec"/></svg>